<svg width="226" height="226" viewBox="0 0 226 226" fill="none" xmlns="http://www.w3.org/2000/svg">
<path d="M138.337 211.478C149.813 209.182 157.273 198.015 154.978 186.538L153.962 181.506C151.623 169.721 147.297 158.509 141.25 148.312H204.812C216.51 148.312 226 138.822 226 127.125C226 118.959 221.365 111.852 214.568 108.321C219.379 104.437 222.469 98.4777 222.469 91.8125C222.469 81.4836 215.053 72.8762 205.298 71.0223C207.24 67.8 208.344 64.048 208.344 60.0312C208.344 50.6293 202.208 42.6398 193.733 39.9031C194.042 38.4465 194.219 36.9016 194.219 35.3125C194.219 23.6152 184.729 14.125 173.031 14.125H129.994C121.607 14.125 113.441 16.5969 106.467 21.2316L89.473 32.5758C77.6875 40.4328 70.625 53.675 70.625 67.8441V84.75V105.938V116.929C70.625 129.818 76.4957 141.956 86.5156 150.034L89.782 152.638C101.479 161.996 109.469 175.15 112.382 189.805L113.397 194.837C115.693 206.313 126.86 213.773 138.337 211.478ZM14.125 169.5H42.375C50.1879 169.5 56.5 163.188 56.5 155.375V56.5C56.5 48.6871 50.1879 42.375 42.375 42.375H14.125C6.31211 42.375 0 48.6871 0 56.5V155.375C0 163.188 6.31211 169.5 14.125 169.5Z" fill="#FF0000"/>
</svg>
